<?xml version="1.0" standalone="no"?>
<!DOCTYPE svg PUBLIC "-//W3C//DTD SVG 20010904//EN"
 "http://www.w3.org/TR/2001/REC-SVG-20010904/DTD/svg10.dtd">
<svg version="1.0" xmlns="http://www.w3.org/2000/svg"
 width="32px" height="32px" viewBox="0 0 256.000000 256.000000"
 preserveAspectRatio="xMidYMid meet">

<g transform="translate(0.000000,256.000000) scale(0.100000,-0.100000)"
fill="#91003d" stroke="none">
<path d="M1598 1643 c-318 -319 -469 -477 -474 -496 -11 -46 2 -110 26 -129
28 -22 100 -24 144 -3 46 22 936 916 936 941 0 23 -128 154 -150 154 -9 0
-225 -210 -482 -467z"/>
<path d="M530 2053 c-99 -34 -172 -108 -205 -209 -14 -43 -15 -115 -13 -609
l3 -560 25 -50 c31 -64 91 -124 155 -155 l50 -25 585 0 585 0 50 25 c64 31
124 91 155 155 l25 50 3 440 3 440 -80 -79 -80 -80 -3 -347 c-3 -333 -4 -349
-24 -375 -11 -15 -33 -37 -48 -48 -27 -21 -37 -21 -586 -21 -549 0 -559 0
-586 21 -15 11 -37 33 -48 48 -21 27 -21 38 -21 581 0 543 0 554 21 581 11 15
33 37 48 48 27 21 40 21 571 24 453 2 550 0 579 -12 l34 -14 53 55 54 54 -29
24 c-67 54 -82 55 -680 55 -474 -1 -557 -3 -596 -17z"/>
<path d="M570 1690 l0 -130 65 0 65 0 0 65 0 65 65 0 65 0 0 65 0 65 -130 0
-130 0 0 -130z"/>
<path d="M1440 1755 l0 -65 48 0 c45 0 51 3 112 65 l64 65 -112 0 -112 0 0
-65z"/>
<path d="M570 820 l0 -130 130 0 130 0 0 65 0 65 -65 0 -65 0 0 65 0 65 -65 0
-65 0 0 -130z"/>
<path d="M1570 885 l0 -65 -65 0 -65 0 0 -65 0 -65 130 0 130 0 0 130 0 130
-65 0 -65 0 0 -65z"/>
</g>
</svg>
